<svg xmlns="http://www.w3.org/2000/svg" width="172.612" height="131.28">
    <g data-name="Group 26">
        <path d="M13.443 76.116a18.853 18.853 0 0 1-5.108-14.39 26.76 26.76 0 0 1 3.623-11.822 29.179 29.179 0 0 1 8.632-9.427 23.933 23.933 0 0 1 16.959-4.204 20.904 20.904 0 0 1 7.377-14.139 36.002 36.002 0 0 1 13.386-7.332 40.79 40.79 0 0 1 15.3-1.757c6.27.564 11.993 2.702 15.9 6.819a25.86 25.86 0 0 1 16.633-7.141 38.165 38.165 0 0 1 14.67 1.73 31.254 31.254 0 0 1 12.309 7.122 18.856 18.856 0 0 1 5.997 12.802 21.388 21.388 0 0 1 19.535 8.77 26.195 26.195 0 0 1 4.418 9.25 25.659 25.659 0 0 1 .503 10.295c-1.248 7.819-6.282 15.065-16.296 18.54a20.39 20.39 0 0 1-.927 11.495 31.42 31.42 0 0 1-9.956 13.28 35.282 35.282 0 0 1-16.348 7.283 31.436 31.436 0 0 1-18.854-2.906c-4.526 5.252-13.152 8.811-21.983 10.037a48.28 48.28 0 0 1-11.385.283 29.656 29.656 0 0 1-10.198-2.722 14.8 14.8 0 0 1-7.065-6.86c-9.635 3.692-18.033 3.493-24.687.942A25.402 25.402 0 0 1 9.73 92.225a22.306 22.306 0 0 1 3.714-16.109Z" fill="#fff"/>
        <g data-name="Group 25" fill="#ffb7d6" font-family="Comic Sans MS, Comic Sans, cursive">
            <g data-name="Group 24" stroke="#fff" stroke-linecap="round" stroke-linejoin="round" stroke-width="15">
                <text transform="rotate(-6.98 807.474 -414.518)" font-size="68"><tspan x="0" y="0">Hi</tspan></text>
                <text data-name="!" transform="rotate(-6.98 766.406 -882.238)" font-size="66"><tspan x="0" y="0">!</tspan></text>
            </g>
            <g data-name="Group 22" stroke="#e36da4" stroke-linecap="round" stroke-linejoin="round" stroke-width="10">
                <text data-name="Hi" transform="rotate(-6.98 807.474 -414.518)" font-size="68"><tspan x="0" y="0">Hi</tspan></text>
                <text data-name="!" transform="rotate(-6.98 766.406 -882.238)" font-size="66"><tspan x="0" y="0">!</tspan></text>
            </g>
            <g data-name="Group 21">
                <text data-name="Hi" transform="rotate(-6.98 807.474 -414.518)" font-size="68"><tspan x="0" y="0">Hi</tspan></text>
                <text data-name="!" transform="rotate(-6.98 766.406 -882.238)" font-size="66"><tspan x="0" y="0">!</tspan></text>
            </g>
        </g>
        <path data-name="Path 6" d="m144.973 26.238 2.422 3.33a.129.129 0 0 0 .073.049l3.98 1.055a2.5 2.5 0 0 1 1.386 3.898l-2.418 3.332a.129.129 0 0 0-.025.082l.226 4.111a2.51 2.51 0 0 1-3.28 2.524l-3.918-1.272a.221.221 0 0 0-.085.002l-3.837 1.487a2.507 2.507 0 0 1-3.414-2.336l-.001-4.12a.106.106 0 0 0-.034-.077l-2.598-3.195a2.506 2.506 0 0 1 1.171-3.97l3.92-1.277a.132.132 0 0 0 .069-.052l2.227-3.457a2.508 2.508 0 0 1 4.136-.114Z" fill="#f9c270"/>
        <g data-name="Layer_2-2">
            <path data-name="Path 6" d="m36.671 84.734 2.422 3.33a.129.129 0 0 0 .073.05l3.98 1.054a2.5 2.5 0 0 1 1.386 3.898L42.114 96.4a.129.129 0 0 0-.025.082l.226 4.111a2.51 2.51 0 0 1-3.279 2.523l-3.918-1.272a.221.221 0 0 0-.086.002l-3.837 1.488a2.507 2.507 0 0 1-3.414-2.336v-4.12a.106.106 0 0 0-.035-.077l-2.597-3.195a2.506 2.506 0 0 1 1.17-3.97l3.92-1.278a.132.132 0 0 0 .07-.051l2.226-3.457a2.508 2.508 0 0 1 4.136-.115Z" fill="#f9c270"/>
        </g>
    </g>
</svg>
