<?xml version="1.0" encoding="UTF-8"?><svg id="Layer_2" xmlns="http://www.w3.org/2000/svg" viewBox="0 0 124.95 113.98"><defs><style>.cls-1{fill:#cbc9fe;}</style></defs><g id="Layer_2-2"><path class="cls-1" d="M19.2,65.51c-3.32,8.47-2.49,18.99.68,27.44,2.07,5.51,11.47,15.45,2.61,19.91C6.59,120.84-1.1,84.21.13,73.24c2.7-24.3,21.77-31.35,42.55-20.34,10.55,5.59,16.25,17.18,29.95,14.14.89-4.55-1.02-2.96-3.42-4.27-10.7-5.81-16.69-9.64-22.1-21.22-8.45-18.07-2.12-40.21,20.81-36.33,11.62,1.97,23.36,15.95,26.75,26.85,1.64,5.27,1.95,10.64,3.05,15.95,8.32-4.3,12-15.69,10.84-24.6-1.02-7.8-8.4-14.75-1.25-21.13,9.73-8.69,16.47,9.55,17.27,17.19,1.65,15.64-1.81,32.31-15.67,41.44-5.16,3.4-12.15,3.14-15.48,5.28-2.28,1.47-4.46,7.88-6.92,10.37-2.18,2.21-10.37,6.75-13.35,7.39-23.84,5.16-31.26-21.95-53.95-18.46ZM81.28,49.75c.18-10.66-3.63-23.92-14.39-28.04-5.03-1.93-8.59.97-7.84,6.02,1.46,9.76,11.81,22.03,22.23,22.02Z"/></g></svg>