<?xml version="1.0" encoding="UTF-8"?><svg id="Layer_2" xmlns="http://www.w3.org/2000/svg" viewBox="0 0 113.1 78"><defs><style>.cls-1{fill:#aaebfe;}</style></defs><g id="Layer_2-2"><path class="cls-1" fill="currentColor" d="M81.53,41.62c-2.18,10.04-7.39,20.75-16.7,25.68-20.89,11.05-43.2-3.3-32.09-26.87,4.56-9.67,14.38-15.02,24.54-16.95-8.53-7.48-23.87-7.54-34.26-4.85-7.46,1.93-15.29,10.68-21.98,2.28-3.27-7.49,1.62-11.52,7.72-14.79C24.88-2.51,51.97-2.35,66.82,8.77c4.95,3.7,9.61,12.47,13.03,14.64,4.54,2.88,11.08,3.83,16.39,7.83,11.19,8.41,18.84,24.93,16.41,38.9-.5,2.9-4.69,7.87-7.78,7.87-9.25,0-8.16-18.89-11.46-24.93-2.06-3.77-8.34-8.67-11.88-11.45ZM65.94,38.17c-9.74-.69-18.2,5.43-20.76,14.65,7.2,10.57,24.03-11.51,20.76-14.65Z"/></g></svg>