<?xml version="1.0" encoding="UTF-8"?><svg id="Layer_2" xmlns="http://www.w3.org/2000/svg" viewBox="0 0 101.93 157.21"><defs><style>.cls-1{fill:#cbc9fe;}</style></defs><g id="Layer_2-2"><path class="cls-1" d="M17.42,43.35c14.24-14.63,41.93-14.33,50.25,5.97,10.18,24.85-8.86,45.91-35.2,40.34-3.08-.65-11.62-7.72-9.85-2.26,2.93,9.07,11.51,16.85,18.15,23.35,2.37-9.89,10.18-20.74,20.83-22.39,33.89-5.22,30.85,34.65,4.26,42.26,1.5,3.35,11.73,7.94,15.47,8.74,5.15,1.11,11.9-.22,15.66,1.64,11.05,5.46,1.39,16.25-7.75,16.2-13.69-.07-29.05-6.65-38.12-17.04s-4.45-7.64-16.48-14.64c-13.61-7.92-26.31-22.48-28.95-38.48-1.11-6.73.37-13.69-.49-20.25C4.11,58.54-.62,52.34.07,42.49.92,30.29,13.88-1.85,28.6.08c5.31.7,7.3,6.19,5.84,10.99-.79,2.59-7.93,8.02-10.45,12.06-3.65,5.86-5.98,13.32-6.57,20.22ZM35.91,50.61c-4.23.95-10.6,7.03-11.37,11.25-1.75,9.49,25.23,20.38,28.84,4.47,2.97-13.08-5.22-18.49-17.47-15.73ZM71.04,103.85c-8.39-1.42-14.95,3.48-13.83,12.09,7-.61,13.34-4.49,13.83-12.09Z"/></g></svg>