<?xml version="1.0" encoding="UTF-8"?><svg id="Layer_2" xmlns="http://www.w3.org/2000/svg" viewBox="0 0 943.75 163.03"><defs><style>.cls-1{fill:#ffffff;}</style></defs><g id="Layer_2-2"><path class="cls-1" d="M315.59,128.67c11.08-8.68,5.44-55.18,10.04-68.36,4.21-12.08,23.89-13.85,28.71-2.25,5.36,12.9-1.22,52.44-5.23,66.69-6.38,22.67-19.06,40.89-45.45,36.94-10.74-1.61-18.86-9.49-21.76-19.71-3.91,6.15-8.42,11.94-15.09,15.36-18.69,9.6-41.38,2.95-49.86-16.84-6.55-15.28-7.13-62.71-2.7-78.68,4.66-16.81,28.55-16.92,30.68,2.74,1.35,12.49-8.1,57.17,2.44,63.48,8.67,5.19,13.08-9.11,15.06-15.04,4.41-13.15,2.86-35.48,21.97-35.05,18.01.4,14.54,21.44,16.6,33.44.98,5.67,5.67,24.27,14.59,17.29Z"/><path class="cls-1" d="M695.51,61.04V12.59c0-1.42,3.54-7.71,5.04-8.95,9.65-7.97,23.68-2.06,25.69,10.19-2.27,38.7,3.84,82.57.27,120.67-2.22,23.7-33.32,29.03-52.51,27.47-74.25-6.02-46.95-121.29,21.51-100.93ZM694.21,93.3c-.82-1.08-6.07-3.52-7.63-3.84-28.42-5.91-38.19,42.21-6.55,42.49,2.22.02,14.05-2.43,15.02-3.93,1.29-2,.8-32.58-.83-34.72Z"/><path class="cls-1" d="M436.75,141.96c-23.51,31.03-64.63,25.35-72.47-14.94-8.06-41.43,24.83-90.6,70.74-73.74,30.15,11.08,24.98,39.52,29,64.91,2.1,13.25,15.36,39.14-6.01,42.5-12.47,1.96-18.52-8.05-21.25-18.74ZM415.52,79.26c-17.87,3.54-29.58,47.64-11.95,50.52,11.4,1.86,21.79-15.1,23.91-24.59,2.31-10.37,4.26-29.15-11.95-25.94Z"/><path class="cls-1" d="M774.44,120.99c4,11.49,16.57,13.01,27.21,11.73,10.87-1.31,26.78-13.98,34.17-2.69,11.5,17.57-17.58,30.06-31.2,31.64-91.46,10.6-76.63-117.47-2.74-112.59,24.45,1.61,44.05,18.73,36.74,44.69-7.06,25.06-42.39,28.89-64.19,27.22ZM775.44,96c7.89-.8,39.97.57,34.04-14.55-5.73-14.6-34.66-.1-34.04,14.55Z"/><path class="cls-1" d="M513.7,65.04c28.44-20.91,57.81-6.33,64.47,26.93,2.62,13.08,4.94,50.68-1.34,61.7-7.36,12.93-27.21,9.22-29.18-7.2-1.41-11.74,1.78-49.22-6.28-57.16-4.4-4.33-11.08-1.43-15.19,1.72-19.72,15.12-8.92,34.18-12.61,55.33-3.53,20.25-28.75,20.79-30.89-3.85-1.17-13.51-1.85-70.91,1.28-81.7,5.06-17.43,30.95-14.66,29.73,4.24Z"/><path class="cls-1" d="M151.88,50.3c70.68-2.22,60.14,112.57-5.33,112.73-69.12.16-59.16-110.7,5.33-112.73ZM147.78,81.25c-17.14,3.21-26.3,40.21-8.79,49.28,31.39,16.26,47.66-56.56,8.79-49.28Z"/><path class="cls-1" d="M895.33,116.98l20.53-56.88c9.92-16.66,32.36-11.44,27.11,12.12-3.3,14.8-24.23,70.08-33.15,80.73-7.15,8.53-18.9,11.69-28,4-10.32-8.72-36.15-81.17-34.35-94.33,1.8-13.16,19.82-16.46,27.89-7.1,1.64,1.9,3.05,5.56,4.02,7.97,6.57,16.32,9.79,36.7,15.96,53.48Z"/><path class="cls-1" d="M33.17,68.03c6.75-4.34,10.81-9.53,18.46-12.99,14.55-6.58,46.15-9.85,42.4,14.43-2.58,16.68-18.87,10.72-29.89,14.07-28.65,8.69-25.13,40.97-28.08,62.83-2.71,20.05-29.58,21.3-33.62-1.17C-.03,131.45-.97,80.39,1.25,66.6c3.22-19.96,30.06-17.41,31.91,1.43Z"/><circle class="cls-1" cx="607.68" cy="144.03" r="16.13"/></g></svg>