<?xml version="1.0" encoding="UTF-8"?><svg id="Layer_2" xmlns="http://www.w3.org/2000/svg" viewBox="0 0 42.76 43.59"><defs><style>.cls-1{fill:#aaebfe;}</style></defs><g id="Layer_2-2"><path class="cls-1" d="M31.97,4.25l1.84,8.61c.01.06.05.12.1.16l6.86,5.52c2.94,2.36,2.59,6.93-.68,8.82l-7.62,4.41c-.05.03-.1.08-.12.14l-3.13,8.23c-1.34,3.52-5.8,4.6-8.6,2.08l-6.55-5.89s-.11-.07-.17-.07l-8.79-.43c-3.76-.18-6.17-4.09-4.64-7.53l3.58-8.05c.03-.06.03-.12.01-.18L1.75,11.57c-.99-3.64,1.98-7.13,5.73-6.74l8.76.91c.06,0,.13,0,.18-.04L23.79.88c3.15-2.06,7.39-.32,8.18,3.37Z"/></g></svg>